<svg width="127" height="30" viewBox="0 0 127 30" fill="none" xmlns="http://www.w3.org/2000/svg">
<path d="M0 3.42857C0 1.53502 1.55448 0 3.47203 0H26.9082C28.8258 0 30.3803 1.53502 30.3803 3.42857C30.3803 5.32212 28.8258 6.85714 26.9082 6.85714H3.47203C1.55448 6.85714 0 5.32212 0 3.42857Z" fill="#012FD3"/>
<path d="M0 15.3C0 13.3828 1.57391 11.8286 3.51543 11.8286H23.3494C27.2325 11.8286 30.3803 14.937 30.3803 18.7714H20.5718L3.51543 18.7714C1.57391 18.7714 0 17.2172 0 15.3Z" fill="#012FD3"/>
<path d="M30.3803 18.7714H20.5718C24.2608 18.7714 24.2608 23.0571 20.5718 23.0571L30.3803 23.0571V18.7714Z" fill="#012FD3"/>
<path d="M30.3803 23.0571L20.5718 23.0571L3.51543 23.0571C1.57391 23.0571 0 24.6114 0 26.5286C0 28.4458 1.57391 30 3.51543 30H23.3494C27.2325 30 30.3803 26.8916 30.3803 23.0571Z" fill="#012FD3"/>
<path d="M45.9205 11.8495C45.3033 11.8495 44.7169 11.7886 44.1613 11.6667C43.6058 11.5448 43.112 11.3517 42.6799 11.0876C42.2582 10.8133 41.9238 10.473 41.6769 10.0667C41.4403 9.65016 41.322 9.1473 41.322 8.55809C41.322 8.5073 41.322 8.45651 41.322 8.40571C41.322 8.34476 41.3271 8.29905 41.3374 8.26857H43.6213C43.611 8.29905 43.6058 8.33968 43.6058 8.39048C43.6058 8.44127 43.6058 8.48698 43.6058 8.52762C43.6058 8.8527 43.6933 9.12698 43.8682 9.35048C44.0533 9.57397 44.3208 9.74159 44.6706 9.85333C45.0204 9.96508 45.4267 10.021 45.8896 10.021C46.188 10.021 46.4503 10.0057 46.6766 9.97524C46.9133 9.9346 47.119 9.88381 47.2939 9.82286C47.4791 9.75175 47.6282 9.67048 47.7414 9.57905C47.8648 9.48762 47.9523 9.38095 48.0037 9.25905C48.0655 9.13714 48.0963 9 48.0963 8.84762C48.0963 8.57333 48.0037 8.34984 47.8186 8.17714C47.6437 8.00444 47.3968 7.85714 47.0779 7.73524C46.7692 7.61333 46.4195 7.50159 46.0285 7.4C45.6376 7.29841 45.2364 7.19682 44.8249 7.09524C44.4134 6.98349 44.0122 6.85143 43.6213 6.69905C43.2303 6.53651 42.8806 6.34349 42.5719 6.12C42.2633 5.89651 42.0164 5.61206 41.8312 5.26667C41.646 4.92127 41.5535 4.50476 41.5535 4.01714C41.5535 3.49905 41.6615 3.05206 41.8775 2.67619C42.1038 2.30032 42.4176 1.99048 42.8188 1.74667C43.22 1.50286 43.683 1.32508 44.2076 1.21333C44.7323 1.09143 45.3033 1.03048 45.9205 1.03048C46.4966 1.03048 47.0418 1.09143 47.5562 1.21333C48.0706 1.32508 48.5232 1.50794 48.9142 1.7619C49.3051 2.01587 49.6086 2.33587 49.8246 2.7219C50.0509 3.10794 50.1641 3.56508 50.1641 4.09333V4.27619H47.9266V4.15428C47.9266 3.88 47.8443 3.64635 47.6797 3.45333C47.5151 3.26032 47.2836 3.10794 46.9853 2.99619C46.6869 2.88444 46.3372 2.82857 45.9359 2.82857C45.5039 2.82857 45.1335 2.86921 44.8249 2.95048C44.5266 3.03175 44.2951 3.15365 44.1305 3.31619C43.9762 3.46857 43.899 3.65143 43.899 3.86476C43.899 4.10857 43.9865 4.31175 44.1613 4.47429C44.3465 4.62667 44.5934 4.76381 44.902 4.88571C45.221 4.99746 45.5759 5.09905 45.9668 5.19048C46.3577 5.2819 46.7589 5.38349 47.1704 5.49524C47.5819 5.60698 47.9832 5.73905 48.3741 5.89143C48.765 6.04381 49.1148 6.23682 49.4234 6.47048C49.732 6.69397 49.9789 6.97333 50.1641 7.30857C50.3493 7.64381 50.4419 8.04508 50.4419 8.51238C50.4419 9.31492 50.2464 9.96 49.8555 10.4476C49.4646 10.9352 48.9296 11.2908 48.2506 11.5143C47.5717 11.7378 46.7949 11.8495 45.9205 11.8495Z" fill="#012FD3"/>
<path d="M52.2737 11.6667V1.21333H60.73V3.07238H54.5884V5.40381H60.0202V7.24762H54.5884V9.79238H60.8226V11.6667H52.2737Z" fill="#012FD3"/>
<path d="M62.8074 11.6667V1.21333H68.6095C69.3914 1.21333 70.0395 1.35048 70.5538 1.62476C71.0785 1.89905 71.4694 2.28508 71.7266 2.78286C71.9838 3.27048 72.1124 3.83429 72.1124 4.47429C72.1124 5.15492 71.9581 5.75936 71.6495 6.28762C71.3408 6.80571 70.8933 7.2019 70.307 7.47619L72.4673 11.6667H69.9212L68.054 7.85714H65.1066V11.6667H62.8074ZM65.1066 6.05905H68.3009C68.7638 6.05905 69.1239 5.9219 69.3811 5.64762C69.6383 5.36317 69.7669 4.98222 69.7669 4.50476C69.7669 4.2 69.7103 3.94095 69.5971 3.72762C69.4839 3.50413 69.3193 3.33651 69.1033 3.22476C68.8873 3.11302 68.6198 3.05714 68.3009 3.05714H65.1066V6.05905Z" fill="#012FD3"/>
<path d="M76.7831 11.6667L72.9562 1.21333H75.4406L77.7244 7.88762C77.7656 7.99936 77.8119 8.13651 77.8633 8.29905C77.9148 8.45143 77.9662 8.60381 78.0176 8.75619C78.0691 8.90857 78.1102 9.04571 78.1411 9.16762H78.2337C78.2748 9.05587 78.316 8.92889 78.3571 8.78667C78.4086 8.63428 78.4548 8.4819 78.496 8.32952C78.5474 8.17714 78.5937 8.03492 78.6349 7.90286L80.9187 1.21333H83.3105L79.4682 11.6667H76.7831Z" fill="#012FD3"/>
<path d="M84.6583 11.6667V1.21333H86.9575V11.6667H84.6583Z" fill="#012FD3"/>
<path d="M94.0371 11.8495C92.9363 11.8495 91.995 11.6616 91.2132 11.2857C90.4313 10.8997 89.8346 10.3054 89.4231 9.50286C89.0219 8.70032 88.8213 7.67936 88.8213 6.44C88.8213 4.61143 89.274 3.25524 90.1793 2.37143C91.0948 1.47746 92.3808 1.03048 94.0371 1.03048C94.9424 1.03048 95.7551 1.18286 96.4752 1.48762C97.1953 1.79238 97.7612 2.24952 98.1727 2.85905C98.5944 3.46857 98.8053 4.23556 98.8053 5.16H96.4906C96.4906 4.67238 96.3878 4.26095 96.182 3.92571C95.9865 3.59048 95.7037 3.33651 95.3333 3.16381C94.9732 2.98095 94.5515 2.88952 94.0679 2.88952C93.4095 2.88952 92.8643 3.01651 92.4322 3.27048C92.0104 3.52444 91.6967 3.90032 91.4909 4.39809C91.2955 4.88571 91.1977 5.48508 91.1977 6.19619V6.66857C91.1977 7.4 91.3006 8.0146 91.5063 8.51238C91.7121 9 92.0207 9.37079 92.4322 9.62476C92.854 9.86857 93.3941 9.99048 94.0525 9.99048C94.5669 9.99048 95.0144 9.90413 95.395 9.73143C95.7757 9.55873 96.0689 9.30476 96.2746 8.96952C96.4804 8.63428 96.5832 8.22286 96.5832 7.73524H98.8053C98.8053 8.65968 98.5996 9.42667 98.1881 10.0362C97.7869 10.6457 97.2262 11.1029 96.5061 11.4076C95.786 11.7022 94.9629 11.8495 94.0371 11.8495Z" fill="#012FD3"/>
<path d="M100.617 11.6667V1.21333H102.916V11.6667H100.617Z" fill="#012FD3"/>
<path d="M110.196 11.8495C109.075 11.8495 108.108 11.6514 107.295 11.2552C106.483 10.859 105.86 10.2597 105.428 9.45714C104.996 8.6546 104.78 7.64889 104.78 6.44C104.78 5.21079 104.996 4.2 105.428 3.40762C105.86 2.60508 106.483 2.01079 107.295 1.62476C108.108 1.22857 109.075 1.03048 110.196 1.03048C111.338 1.03048 112.31 1.22857 113.113 1.62476C113.926 2.01079 114.548 2.60508 114.98 3.40762C115.412 4.2 115.628 5.21079 115.628 6.44C115.628 7.64889 115.412 8.6546 114.98 9.45714C114.548 10.2597 113.926 10.859 113.113 11.2552C112.31 11.6514 111.338 11.8495 110.196 11.8495ZM110.196 9.99048C110.7 9.99048 111.143 9.91936 111.523 9.77714C111.904 9.63492 112.223 9.42159 112.48 9.13714C112.737 8.8527 112.933 8.5073 113.067 8.10095C113.2 7.68444 113.267 7.21206 113.267 6.68381V6.21143C113.267 5.67302 113.2 5.19556 113.067 4.77905C112.933 4.36254 112.737 4.01714 112.48 3.74286C112.223 3.45841 111.904 3.24508 111.523 3.10286C111.143 2.96063 110.7 2.88952 110.196 2.88952C109.703 2.88952 109.265 2.96063 108.885 3.10286C108.504 3.24508 108.185 3.45841 107.928 3.74286C107.671 4.01714 107.475 4.36254 107.342 4.77905C107.218 5.19556 107.156 5.67302 107.156 6.21143V6.68381C107.156 7.21206 107.218 7.68444 107.342 8.10095C107.475 8.5073 107.671 8.8527 107.928 9.13714C108.185 9.42159 108.504 9.63492 108.885 9.77714C109.265 9.91936 109.703 9.99048 110.196 9.99048Z" fill="#012FD3"/>
<path d="M121.615 11.8495C120.998 11.8495 120.411 11.7886 119.856 11.6667C119.3 11.5448 118.807 11.3517 118.374 11.0876C117.953 10.8133 117.618 10.473 117.371 10.0667C117.135 9.65016 117.017 9.1473 117.017 8.55809C117.017 8.5073 117.017 8.45651 117.017 8.40571C117.017 8.34476 117.022 8.29905 117.032 8.26857H119.316C119.305 8.29905 119.3 8.33968 119.3 8.39048C119.3 8.44127 119.3 8.48698 119.3 8.52762C119.3 8.8527 119.388 9.12698 119.563 9.35048C119.748 9.57397 120.015 9.74159 120.365 9.85333C120.715 9.96508 121.121 10.021 121.584 10.021C121.882 10.021 122.145 10.0057 122.371 9.97524C122.608 9.9346 122.814 9.88381 122.988 9.82286C123.174 9.75175 123.323 9.67048 123.436 9.57905C123.559 9.48762 123.647 9.38095 123.698 9.25905C123.76 9.13714 123.791 9 123.791 8.84762C123.791 8.57333 123.698 8.34984 123.513 8.17714C123.338 8.00444 123.091 7.85714 122.772 7.73524C122.464 7.61333 122.114 7.50159 121.723 7.4C121.332 7.29841 120.931 7.19682 120.519 7.09524C120.108 6.98349 119.707 6.85143 119.316 6.69905C118.925 6.53651 118.575 6.34349 118.266 6.12C117.958 5.89651 117.711 5.61206 117.526 5.26667C117.341 4.92127 117.248 4.50476 117.248 4.01714C117.248 3.49905 117.356 3.05206 117.572 2.67619C117.798 2.30032 118.112 1.99048 118.513 1.74667C118.915 1.50286 119.377 1.32508 119.902 1.21333C120.427 1.09143 120.998 1.03048 121.615 1.03048C122.191 1.03048 122.736 1.09143 123.251 1.21333C123.765 1.32508 124.218 1.50794 124.609 1.7619C125 2.01587 125.303 2.33587 125.519 2.7219C125.745 3.10794 125.859 3.56508 125.859 4.09333V4.27619H123.621V4.15428C123.621 3.88 123.539 3.64635 123.374 3.45333C123.21 3.26032 122.978 3.10794 122.68 2.99619C122.381 2.88444 122.032 2.82857 121.63 2.82857C121.198 2.82857 120.828 2.86921 120.519 2.95048C120.221 3.03175 119.99 3.15365 119.825 3.31619C119.671 3.46857 119.594 3.65143 119.594 3.86476C119.594 4.10857 119.681 4.31175 119.856 4.47429C120.041 4.62667 120.288 4.76381 120.597 4.88571C120.915 4.99746 121.27 5.09905 121.661 5.19048C122.052 5.2819 122.453 5.38349 122.865 5.49524C123.276 5.60698 123.678 5.73905 124.069 5.89143C124.46 6.04381 124.809 6.23682 125.118 6.47048C125.427 6.69397 125.673 6.97333 125.859 7.30857C126.044 7.64381 126.136 8.04508 126.136 8.51238C126.136 9.31492 125.941 9.96 125.55 10.4476C125.159 10.9352 124.624 11.2908 123.945 11.5143C123.266 11.7378 122.489 11.8495 121.615 11.8495Z" fill="#012FD3"/>
<path d="M41.8004 28.3333V17.88H46.1211C47.2219 17.88 48.158 18.0679 48.9296 18.4438C49.7012 18.8197 50.2927 19.3936 50.7042 20.1657C51.126 20.9276 51.3369 21.9079 51.3369 23.1067C51.3369 24.2952 51.126 25.2756 50.7042 26.0476C50.2927 26.8197 49.7012 27.3937 48.9296 27.7695C48.158 28.1454 47.2219 28.3333 46.1211 28.3333H41.8004ZM44.0996 26.459H46.1057C46.5686 26.459 46.9801 26.393 47.3402 26.261C47.7002 26.1289 47.9986 25.9359 48.2352 25.6819C48.4718 25.4178 48.6518 25.0927 48.7753 24.7067C48.8987 24.3105 48.9605 23.8533 48.9605 23.3352V22.8781C48.9605 22.36 48.8987 21.9079 48.7753 21.5219C48.6518 21.1257 48.4718 20.8006 48.2352 20.5467C47.9986 20.2825 47.7002 20.0844 47.3402 19.9524C46.9801 19.8102 46.5686 19.739 46.1057 19.739H44.0996V26.459Z" fill="#012FD3"/>
<path d="M53.208 28.3333V17.88H55.5073V28.3333H53.208Z" fill="#012FD3"/>
<path d="M62.664 28.5162C60.9974 28.5162 59.7115 28.0794 58.8062 27.2057C57.9112 26.3219 57.4637 24.9556 57.4637 23.1067C57.4637 21.8775 57.6797 20.8667 58.1118 20.0743C58.5439 19.2717 59.1714 18.6775 59.9944 18.2914C60.8174 17.8952 61.805 17.6971 62.9572 17.6971C63.6465 17.6971 64.2946 17.7733 64.9016 17.9257C65.5085 18.0781 66.0435 18.3117 66.5064 18.6267C66.9796 18.9416 67.3448 19.3378 67.602 19.8152C67.8695 20.2825 68.0032 20.8413 68.0032 21.4914H65.6731C65.6731 21.1765 65.6011 20.8971 65.4571 20.6533C65.3233 20.4095 65.133 20.2063 64.8861 20.0438C64.6392 19.8813 64.3563 19.7594 64.0374 19.6781C63.7185 19.5968 63.3841 19.5562 63.0344 19.5562C62.4994 19.5562 62.0313 19.6273 61.6301 19.7695C61.2289 19.9016 60.8946 20.1098 60.6271 20.3943C60.3699 20.6686 60.1744 21.014 60.0407 21.4305C59.907 21.847 59.8401 22.3295 59.8401 22.8781V23.3352C59.8401 24.0971 59.9533 24.7219 60.1796 25.2095C60.4059 25.6971 60.7454 26.0629 61.198 26.3067C61.6507 26.5403 62.2114 26.6571 62.8801 26.6571C63.4356 26.6571 63.9242 26.5759 64.346 26.4133C64.7781 26.2406 65.1124 25.9968 65.3491 25.6819C65.596 25.367 65.7194 24.9809 65.7194 24.5238V24.4171H62.556V22.68H68.0032V28.3333H66.491L66.2904 27.2057C65.9817 27.5003 65.6474 27.7441 65.2873 27.9371C64.9376 28.1302 64.5466 28.2724 64.1146 28.3638C63.6825 28.4654 63.199 28.5162 62.664 28.5162Z" fill="#012FD3"/>
<path d="M70.2216 28.3333V17.88H72.5209V28.3333H70.2216Z" fill="#012FD3"/>
<path d="M77.4709 28.3333V19.7848H74.076V17.88H83.1959V19.7848H79.7856V28.3333H77.4709Z" fill="#012FD3"/>
<path d="M82.3725 28.3333L86.4464 17.88H89.2857L93.3596 28.3333H90.8751L90.119 26.2762H85.505L84.7489 28.3333H82.3725ZM86.1686 24.4476H89.4554L88.5141 21.8724C88.473 21.7606 88.4215 21.6286 88.3598 21.4762C88.3084 21.3136 88.2518 21.1359 88.1901 20.9429C88.1284 20.7498 88.0666 20.5619 88.0049 20.379C87.9535 20.186 87.902 20.0133 87.8506 19.861H87.758C87.7066 20.054 87.6397 20.2825 87.5574 20.5467C87.4751 20.8006 87.3928 21.0495 87.3105 21.2933C87.2282 21.527 87.1613 21.72 87.1099 21.8724L86.1686 24.4476Z" fill="#012FD3"/>
<path d="M94.6192 28.3333V17.88H96.9185V26.3981H102.258V28.3333H94.6192Z" fill="#012FD3"/>
<path d="M103.736 28.3333V17.88H112.193V19.739H106.051V22.0705H111.483V23.9143H106.051V26.459H112.285V28.3333H103.736Z" fill="#012FD3"/>
<path d="M118.39 28.5162C117.773 28.5162 117.186 28.4552 116.631 28.3333C116.075 28.2114 115.582 28.0184 115.15 27.7543C114.728 27.48 114.393 27.1397 114.147 26.7333C113.91 26.3168 113.792 25.814 113.792 25.2248C113.792 25.174 113.792 25.1232 113.792 25.0724C113.792 25.0114 113.797 24.9657 113.807 24.9352H116.091C116.081 24.9657 116.075 25.0063 116.075 25.0571C116.075 25.1079 116.075 25.1537 116.075 25.1943C116.075 25.5194 116.163 25.7936 116.338 26.0171C116.523 26.2406 116.79 26.4083 117.14 26.52C117.49 26.6317 117.896 26.6876 118.359 26.6876C118.658 26.6876 118.92 26.6724 119.146 26.6419C119.383 26.6013 119.589 26.5505 119.764 26.4895C119.949 26.4184 120.098 26.3371 120.211 26.2457C120.334 26.1543 120.422 26.0476 120.473 25.9257C120.535 25.8038 120.566 25.6667 120.566 25.5143C120.566 25.24 120.473 25.0165 120.288 24.8438C120.113 24.6711 119.866 24.5238 119.547 24.4019C119.239 24.28 118.889 24.1683 118.498 24.0667C118.107 23.9651 117.706 23.8635 117.295 23.7619C116.883 23.6502 116.482 23.5181 116.091 23.3657C115.7 23.2032 115.35 23.0102 115.042 22.7867C114.733 22.5632 114.486 22.2787 114.301 21.9333C114.116 21.5879 114.023 21.1714 114.023 20.6838C114.023 20.1657 114.131 19.7187 114.347 19.3429C114.573 18.967 114.887 18.6571 115.288 18.4133C115.69 18.1695 116.153 17.9917 116.677 17.88C117.202 17.7581 117.773 17.6971 118.39 17.6971C118.966 17.6971 119.511 17.7581 120.026 17.88C120.54 17.9917 120.993 18.1746 121.384 18.4286C121.775 18.6825 122.078 19.0025 122.294 19.3886C122.521 19.7746 122.634 20.2317 122.634 20.76V20.9429H120.396V20.821C120.396 20.5467 120.314 20.313 120.149 20.12C119.985 19.927 119.753 19.7746 119.455 19.6629C119.157 19.5511 118.807 19.4952 118.406 19.4952C117.973 19.4952 117.603 19.5359 117.295 19.6171C116.996 19.6984 116.765 19.8203 116.6 19.9829C116.446 20.1352 116.369 20.3181 116.369 20.5314C116.369 20.7752 116.456 20.9784 116.631 21.141C116.816 21.2933 117.063 21.4305 117.372 21.5524C117.691 21.6641 118.045 21.7657 118.436 21.8571C118.827 21.9486 119.229 22.0502 119.64 22.1619C120.052 22.2736 120.453 22.4057 120.844 22.5581C121.235 22.7105 121.584 22.9035 121.893 23.1371C122.202 23.3606 122.449 23.64 122.634 23.9752C122.819 24.3105 122.911 24.7117 122.911 25.179C122.911 25.9816 122.716 26.6267 122.325 27.1143C121.934 27.6019 121.399 27.9575 120.72 28.181C120.041 28.4044 119.265 28.5162 118.39 28.5162Z" fill="#012FD3"/>
</svg>
