<svg width="232" height="320" viewBox="0 0 232 320" fill="none" xmlns="http://www.w3.org/2000/svg">
<g style="mix-blend-mode:soft-light">
<path d="M191.184 160C213.174 160 231 177.797 231 199.75C231 221.703 213.174 239.5 191.184 239.5M191.184 160L191.184 239.5M191.184 160L120.69 160C98.7007 160 80.8745 142.203 80.8745 120.25C80.8745 98.2967 98.7007 80.5 120.69 80.5L191.184 80.5M191.184 160C213.174 160 231 142.203 231 120.25C231 98.2967 213.174 80.5 191.184 80.5M191.184 239.5L120.69 239.5C98.7007 239.5 80.8745 257.297 80.8745 279.25C80.8745 301.203 98.7007 319 120.69 319L191.184 319C213.174 319 231 301.203 231 279.25C231 257.297 213.174 239.5 191.184 239.5ZM-120.816 160C-98.8262 160 -81 177.797 -81 199.75M-120.816 160L-120.816 239.5M-120.816 160L-191.31 160C-213.299 160 -231.126 142.203 -231.126 120.25C-231.126 98.2967 -213.299 80.5 -191.31 80.5L-120.816 80.5M-120.816 160C-98.8262 160 -81 142.203 -81 120.25M-81 199.75C-81 221.703 -98.8262 239.5 -120.816 239.5M-81 199.75C-81 177.797 -63.1738 160 -41.1841 160M-81 199.75C-81 221.703 -63.1738 239.5 -41.1841 239.5M-120.816 239.5L-191.31 239.5C-213.299 239.5 -231.126 257.297 -231.126 279.25C-231.126 301.203 -213.299 319 -191.31 319L-120.816 319C-98.8262 319 -81 301.203 -81 279.25M-120.816 239.5C-98.8262 239.5 -81 257.297 -81 279.25M191.184 80.5C213.174 80.5 231 62.7033 231 40.75C231 18.7967 213.174 1.00003 191.184 1.00003L191.184 80.5ZM-81 40.75C-81 18.7967 -98.8262 1 -120.816 0.999999L-120.816 80.5M-81 40.75C-81 62.7033 -98.8262 80.5 -120.816 80.5M-81 40.75C-81 18.7967 -63.1738 1 -41.1841 1.00001L29.3096 1.00001C51.2994 1.00001 69.1255 18.7967 69.1255 40.75C69.1255 62.7033 51.2994 80.5 29.3096 80.5L-41.1841 80.5M-81 40.75C-81 62.7033 -63.1738 80.5 -41.1841 80.5M-120.816 80.5C-98.8262 80.5 -81 98.2967 -81 120.25M-81 279.25C-81 301.203 -63.1738 319 -41.1841 319L-41.1841 239.5M-81 279.25C-81 257.297 -63.1738 239.5 -41.1841 239.5M-41.1841 239.5L29.3096 239.5C51.2993 239.5 69.1255 221.703 69.1255 199.75C69.1255 177.797 51.2993 160 29.3096 160L-41.1841 160M-353.184 239.5C-375.174 239.5 -393 257.297 -393 279.25C-393 301.203 -375.174 319 -353.184 319L-353.184 239.5ZM-353.184 239.5L-282.69 239.5C-260.701 239.5 -242.874 221.703 -242.874 199.75C-242.874 177.797 -260.701 160 -282.69 160L-353.184 160M-353.184 239.5C-375.174 239.5 -393 221.703 -393 199.75C-393 177.797 -375.174 160 -353.184 160M-41.1841 160C-63.1738 160 -81 142.203 -81 120.25M-41.1841 160L-41.1841 80.5M-81 120.25C-81 98.2967 -63.1738 80.5 -41.1841 80.5M-353.184 160C-375.174 160 -393 142.203 -393 120.25C-393 98.2966 -375.174 80.5 -353.184 80.5M-353.184 160L-353.184 80.5M-353.184 80.5L-282.69 80.5C-260.701 80.5 -242.874 62.7033 -242.874 40.75C-242.874 18.7967 -260.701 0.999987 -282.69 0.999985L-353.184 0.999979C-375.174 0.999977 -393 18.7967 -393 40.75C-393 62.7033 -375.174 80.5 -353.184 80.5ZM150.715 160C172.705 160 190.531 177.797 190.531 199.75C190.531 221.703 172.705 239.5 150.715 239.5L150.715 160ZM-161.285 160C-139.295 160 -121.469 177.797 -121.469 199.75C-121.469 221.703 -139.295 239.5 -161.285 239.5L-161.285 160ZM150.716 1.00002C172.705 1.00002 190.531 18.7967 190.531 40.75C190.531 62.7033 172.705 80.5 150.716 80.5L150.716 1.00002ZM-161.284 0.999996C-139.295 0.999998 -121.469 18.7967 -121.469 40.75C-121.469 62.7033 -139.295 80.5 -161.285 80.5L-161.284 0.999996ZM-0.715485 319C-22.7052 319 -40.5314 301.203 -40.5314 279.25C-40.5314 257.297 -22.7052 239.5 -0.715478 239.5L-0.715485 319ZM-312.715 319C-334.705 319 -352.531 301.203 -352.531 279.25C-352.531 257.297 -334.705 239.5 -312.715 239.5L-312.715 319ZM-0.715471 160C-22.7052 160 -40.5314 142.203 -40.5314 120.25C-40.5314 98.2967 -22.7052 80.5 -0.715464 80.5L-0.715471 160ZM-312.715 160C-334.705 160 -352.531 142.203 -352.531 120.25C-352.531 98.2967 -334.705 80.5 -312.715 80.5L-312.715 160ZM70.431 199.75C70.431 177.797 88.2572 160 110.247 160C132.237 160 150.063 177.797 150.063 199.75C150.063 221.703 132.237 239.5 110.247 239.5C88.2572 239.5 70.431 221.703 70.431 199.75ZM-241.569 199.75C-241.569 177.797 -223.743 160 -201.753 160C-179.763 160 -161.937 177.797 -161.937 199.75C-161.937 221.703 -179.763 239.5 -201.753 239.5C-223.743 239.5 -241.569 221.703 -241.569 199.75ZM70.431 40.75C70.431 18.7967 88.2572 1.00002 110.247 1.00002C132.237 1.00002 150.063 18.7967 150.063 40.75C150.063 62.7033 132.237 80.5 110.247 80.5C88.2572 80.5 70.431 62.7033 70.431 40.75ZM-241.569 40.75C-241.569 18.7967 -223.743 0.99999 -201.753 0.999992C-179.763 0.999994 -161.937 18.7967 -161.937 40.75C-161.937 62.7033 -179.763 80.5 -201.753 80.5C-223.743 80.5 -241.569 62.7033 -241.569 40.75ZM79.569 279.25C79.569 301.203 61.7428 319 39.7531 319C17.7634 319 -0.0627658 301.203 -0.062762 279.25C-0.0627582 257.297 17.7634 239.5 39.7531 239.5C61.7429 239.5 79.569 257.297 79.569 279.25ZM-232.431 279.25C-232.431 301.203 -250.257 319 -272.247 319C-294.237 319 -312.063 301.203 -312.063 279.25C-312.063 257.297 -294.237 239.5 -272.247 239.5C-250.257 239.5 -232.431 257.297 -232.431 279.25ZM79.5691 120.25C79.569 142.203 61.7429 160 39.7531 160C17.7634 160 -0.0627519 142.203 -0.0627481 120.25C-0.0627443 98.2967 17.7634 80.5 39.7532 80.5C61.7429 80.5 79.5691 98.2967 79.5691 120.25ZM-232.431 120.25C-232.431 142.203 -250.257 160 -272.247 160C-294.237 160 -312.063 142.203 -312.063 120.25C-312.063 98.2967 -294.237 80.5 -272.247 80.5C-250.257 80.5 -232.431 98.2967 -232.431 120.25Z" stroke="white"/>
</g>
</svg>
